<svg version="1.1" xmlns="http://www.w3.org/2000/svg" viewBox="0 0 448.000517487244 291.3217566213775" width="448.000517487244" height="291.3217566213775" filter="invert(93%) hue-rotate(180deg)">
  <!-- svg-source:excalidraw -->
  
  <defs>
    <style class="style-fonts">
      @font-face {
        font-family: "Virgil";
        src: url("https://excalidraw.com/Virgil.woff2");
      }
      @font-face {
        font-family: "Cascadia";
        src: url("https://excalidraw.com/Cascadia.woff2");
      }
      @font-face {
        font-family: "Assistant";
        src: url("https://excalidraw.com/Assistant-Regular.woff2");
      }
    </style>
    
  </defs>
  <rect x="0" y="0" width="448.000517487244" height="291.3217566213775" fill="#ffffff"></rect><g stroke-linecap="round" transform="translate(10 10) rotate(0 76.81080715619282 54.26435132427548)"><path d="M27.13 0 C66.21 -0.2, 103.44 -1.08, 126.49 0 M27.13 0 C49.3 1.04, 71.89 1.54, 126.49 0 M126.49 0 C145.02 0.41, 151.72 7.8, 153.62 27.13 M126.49 0 C144.76 -2.19, 153.88 9.6, 153.62 27.13 M153.62 27.13 C152.89 48.42, 155.87 66.76, 153.62 81.4 M153.62 27.13 C153.23 43.18, 153.15 57.96, 153.62 81.4 M153.62 81.4 C154.35 97.81, 144.56 108.94, 126.49 108.53 M153.62 81.4 C153.02 98.88, 143.18 110.7, 126.49 108.53 M126.49 108.53 C98.63 111.19, 74.21 107.37, 27.13 108.53 M126.49 108.53 C99.83 109.62, 71.84 109.12, 27.13 108.53 M27.13 108.53 C9.69 106.67, -1.23 101.21, 0 81.4 M27.13 108.53 C8.39 107.61, 0.41 98.53, 0 81.4 M0 81.4 C1.63 62.84, 0.11 42.78, 0 27.13 M0 81.4 C0.14 68.03, 1.24 54.53, 0 27.13 M0 27.13 C-0.06 9.39, 9.56 0.67, 27.13 0 M0 27.13 C2.1 10.63, 8.83 -0.99, 27.13 0" stroke="#1e1e1e" stroke-width="1" fill="none"></path></g><g transform="translate(50.026825832950635 44.264351324275594) rotate(0 36.78398132324219 20)"><text x="36.78398132324219" y="14.016" font-family="Virgil, Segoe UI Emoji" font-size="16px" fill="#1e1e1e" text-anchor="middle" style="white-space: pre;" direction="ltr" dominant-baseline="alphabetic">VS Code </text><text x="36.78398132324219" y="34.016" font-family="Virgil, Segoe UI Emoji" font-size="16px" fill="#1e1e1e" text-anchor="middle" style="white-space: pre;" direction="ltr" dominant-baseline="alphabetic">Extension</text></g><g stroke-linecap="round" transform="translate(42.10003881154353 207.1859526994799) rotate(0 36.68575864176364 37.0679019609488)"><path d="M23.82 2.77 C30.03 0.07, 39.85 0.08, 46.93 1.89 C54.02 3.71, 61.84 8.11, 66.31 13.66 C70.78 19.21, 73.51 27.99, 73.73 35.18 C73.95 42.38, 71.81 50.7, 67.62 56.84 C63.44 62.97, 55.37 69.34, 48.61 71.98 C41.85 74.63, 34.01 74.63, 27.07 72.72 C20.12 70.81, 11.3 66.16, 6.94 60.52 C2.58 54.89, 1.05 46.31, 0.9 38.92 C0.74 31.53, 0.79 22.52, 5.99 16.21 C11.18 9.89, 26.5 3.67, 32.06 1.01 C37.63 -1.65, 39.36 -0.29, 39.37 0.23 M40.52 1.2 C47.44 1.06, 55.49 3.11, 61.03 7.59 C66.58 12.08, 72.15 20.85, 73.78 28.11 C75.42 35.37, 73.77 44.45, 70.83 51.17 C67.89 57.9, 62.26 64.84, 56.16 68.45 C50.07 72.06, 41.65 73.46, 34.26 72.83 C26.87 72.21, 17.3 69.46, 11.79 64.67 C6.29 59.88, 2.59 51.14, 1.22 44.11 C-0.15 37.09, 1.02 29, 3.6 22.53 C6.18 16.05, 10.77 8.85, 16.71 5.25 C22.64 1.66, 35.21 1.9, 39.19 0.95 C43.17 -0.01, 40.42 -0.83, 40.61 -0.47" stroke="#1e1e1e" stroke-width="1" fill="none"></path></g><g transform="translate(59.48505576378648 224.04288981948366) rotate(0 19.35999298095703 20)"><text x="19.35999298095703" y="14.016" font-family="Virgil, Segoe UI Emoji" font-size="16px" fill="#1e1e1e" text-anchor="middle" style="white-space: pre;" direction="ltr" dominant-baseline="alphabetic">ORY </text><text x="19.35999298095703" y="34.016" font-family="Virgil, Segoe UI Emoji" font-size="16px" fill="#1e1e1e" text-anchor="middle" style="white-space: pre;" direction="ltr" dominant-baseline="alphabetic">CLI</text></g><g stroke-linecap="round" transform="translate(294.3146294736689 118.52870264855073) rotate(0 71.84294400678755 47.385771578944855)"><path d="M23.69 0 C55.09 1.24, 86.27 0.86, 119.99 0 M23.69 0 C52.78 -0.68, 82.21 -0.72, 119.99 0 M119.99 0 C136.17 1.06, 144.64 7.18, 143.69 23.69 M119.99 0 C133.86 -0.83, 142.82 9.32, 143.69 23.69 M143.69 23.69 C144.72 40, 143.36 58.22, 143.69 71.08 M143.69 23.69 C142.87 37.72, 143.17 52.61, 143.69 71.08 M143.69 71.08 C141.8 87.58, 137.75 96.52, 119.99 94.77 M143.69 71.08 C145.98 87.92, 136.27 94.33, 119.99 94.77 M119.99 94.77 C91.89 95.49, 62.73 96.17, 23.69 94.77 M119.99 94.77 C93.74 95.33, 69.6 96.47, 23.69 94.77 M23.69 94.77 C7.34 93.18, 1.64 86.91, 0 71.08 M23.69 94.77 C6.42 92.92, -2.07 87.14, 0 71.08 M0 71.08 C-1.64 51.97, 0.6 33.22, 0 23.69 M0 71.08 C-0.67 56.57, 0.26 40.79, 0 23.69 M0 23.69 C1.83 9.66, 8.93 1.33, 23.69 0 M0 23.69 C2.02 7.7, 6.44 1.75, 23.69 0" stroke="#1e1e1e" stroke-width="1" fill="none"></path></g><g transform="translate(307.7176015566283 155.91447422749548) rotate(0 58.439971923828125 10)"><text x="58.439971923828125" y="14.016" font-family="Virgil, Segoe UI Emoji" font-size="16px" fill="#1e1e1e" text-anchor="middle" style="white-space: pre;" direction="ltr" dominant-baseline="alphabetic">ORY NETWORK</text></g><g stroke-linecap="round"><g transform="translate(78.78579745330717 132.2858621392122) rotate(0 0.7642866383703222 34.77504204583852)"><path d="M-0.86 -0.05 C-0.53 11.32, 0.56 56.95, 0.97 68.36 M0.88 -1.12 C1.1 10.34, -0.27 57.56, -0.27 69.27" stroke="#1e1e1e" stroke-width="1" fill="none"></path></g><g transform="translate(78.78579745330717 132.2858621392122) rotate(0 0.7642866383703222 34.77504204583852)"><path d="M-8.44 45.64 C-6.75 49.86, -6.89 55.98, -0.27 69.27 M-8.44 45.64 C-7.8 50.2, -4.75 55.16, -0.27 69.27" stroke="#1e1e1e" stroke-width="1" fill="none"></path></g><g transform="translate(78.78579745330717 132.2858621392122) rotate(0 0.7642866383703222 34.77504204583852)"><path d="M8.65 45.92 C6.67 49.95, 2.85 56.01, -0.27 69.27 M8.65 45.92 C5.81 50.47, 5.38 55.37, -0.27 69.27" stroke="#1e1e1e" stroke-width="1" fill="none"></path></g></g><mask></mask><g stroke-linecap="round"><g transform="translate(125.40728239388227 238.52170487265312) rotate(0 78.72152375211772 -29.425035577247968)"><path d="M-0.84 -0.16 C25.48 -9.78, 130.79 -48.41, 157.32 -58.25 M0.93 -1.29 C27.13 -11.22, 130.12 -50.59, 156.31 -60.06" stroke="#1e1e1e" stroke-width="1" fill="none"></path></g><g transform="translate(125.40728239388227 238.52170487265312) rotate(0 78.72152375211772 -29.425035577247968)"><path d="M137.29 -43.83 C141.85 -47.95, 147.86 -50.26, 156.31 -60.06 M137.29 -43.83 C143.11 -48.66, 147.48 -51.73, 156.31 -60.06" stroke="#1e1e1e" stroke-width="1" fill="none"></path></g><g transform="translate(125.40728239388227 238.52170487265312) rotate(0 78.72152375211772 -29.425035577247968)"><path d="M131.31 -59.85 C137.3 -59.93, 144.8 -58.24, 156.31 -60.06 M131.31 -59.85 C138.81 -60.36, 144.79 -59.1, 156.31 -60.06" stroke="#1e1e1e" stroke-width="1" fill="none"></path></g></g><mask></mask></svg>