<svg version="1.1" xmlns="http://www.w3.org/2000/svg" viewBox="0 0 555.0006468590564 361.96449363326724" width="555.0006468590564" height="361.96449363326724" filter="invert(93%) hue-rotate(180deg)">
  <!-- svg-source:excalidraw -->
  
  <defs>
    <style class="style-fonts">
      @font-face {
        font-family: "Virgil";
        src: url("https://excalidraw.com/Virgil.woff2");
      }
      @font-face {
        font-family: "Cascadia";
        src: url("https://excalidraw.com/Cascadia.woff2");
      }
      @font-face {
        font-family: "Assistant";
        src: url("https://excalidraw.com/Assistant-Regular.woff2");
      }
    </style>
    
  </defs>
  <rect x="0" y="0" width="555.0006468590564" height="361.96449363326724" fill="#ffffff"></rect><g stroke-linecap="round" transform="translate(232.6280485944053 85.18580047265027) rotate(0 32.326690673828125 32.326690673828125)"><path d="M-0.33 -2.67 L62.37 2.71 L62 63.91 L-0.67 64.88" stroke="none" stroke-width="0" fill="#e64980"></path><path d="M-3.47 -0.19 C24.88 2.04, 47.09 -4.43, 63.42 2.12 M0.3 1.37 C17.99 -1.34, 34.9 0.28, 62.68 0.9 M62.97 -0.43 C61.23 23.09, 66.53 35.13, 63.51 67.88 M62.77 1.61 C63.36 24.44, 65.48 47.73, 64.33 63.4 M64.43 68.14 C48.96 66.25, 36.29 61.93, -1.29 67.07 M65.03 66.53 C46.87 64.84, 31.67 63.43, 1.25 65.58 M3.94 63.63 C3.54 44.75, -2.71 25.8, -1.74 -0.51 M0.79 62.81 C1.06 42.79, 0.61 23.97, -0.27 -0.98" stroke="#00000000" stroke-width="1" fill="none"></path></g><g stroke-linecap="round" transform="translate(226.79086223646482 85.30446660034204) rotate(0 32.326690673828125 32.326690673828125)"><path d="M0 0 C0 0, 0 0, 0 0 M0 0 C0 0, 0 0, 0 0 M-0.26 6.4 C1.45 4.42, 3.17 2.45, 4.99 0.36 M-0.26 6.4 C1.15 4.77, 2.57 3.15, 4.99 0.36 M0.13 12.04 C3.14 8.58, 6.15 5.12, 10.63 -0.03 M0.13 12.04 C3.09 8.64, 6.04 5.25, 10.63 -0.03 M-0.13 18.44 C4.11 13.56, 8.35 8.69, 15.62 0.33 M-0.13 18.44 C4.12 13.55, 8.37 8.66, 15.62 0.33 M0.27 24.08 C8 15.19, 15.73 6.3, 21.26 -0.07 M0.27 24.08 C8.32 14.81, 16.38 5.55, 21.26 -0.07 M0 30.48 C5.45 24.22, 10.89 17.96, 26.25 0.29 M0 30.48 C9.82 19.19, 19.63 7.9, 26.25 0.29 M-0.26 36.88 C11.02 23.9, 22.3 10.93, 31.89 -0.1 M-0.26 36.88 C7.27 28.22, 14.8 19.55, 31.89 -0.1 M0.14 42.52 C7.93 33.56, 15.72 24.59, 36.88 0.26 M0.14 42.52 C12.68 28.09, 25.22 13.66, 36.88 0.26 M-0.12 48.92 C11.11 35.99, 22.35 23.07, 42.52 -0.14 M-0.12 48.92 C12.52 34.38, 25.16 19.84, 42.52 -0.14 M0.27 54.56 C16.6 35.77, 32.93 16.99, 47.51 0.22 M0.27 54.56 C12.77 40.18, 25.27 25.8, 47.51 0.22 M0.01 60.96 C14.74 44.01, 29.47 27.07, 53.15 -0.17 M0.01 60.96 C11.53 47.71, 23.04 34.46, 53.15 -0.17 M1.72 65.09 C22.2 41.52, 42.69 17.95, 58.14 0.19 M1.72 65.09 C16.89 47.63, 32.07 30.17, 58.14 0.19 M7.36 64.7 C18.94 51.37, 30.53 38.05, 63.78 -0.21 M7.36 64.7 C25.66 43.64, 43.96 22.59, 63.78 -0.21 M12.35 65.06 C23.43 52.31, 34.52 39.55, 64.83 4.68 M12.35 65.06 C23.51 52.22, 34.67 39.38, 64.83 4.68 M17.99 64.66 C27.47 53.76, 36.94 42.86, 64.57 11.08 M17.99 64.66 C33.43 46.91, 48.86 29.15, 64.57 11.08 M22.98 65.02 C36.8 49.13, 50.62 33.23, 64.96 16.72 M22.98 65.02 C39.2 46.36, 55.43 27.69, 64.96 16.72 M27.96 65.38 C37.86 54, 47.75 42.62, 64.7 23.12 M27.96 65.38 C36.51 55.55, 45.06 45.72, 64.7 23.12 M33.61 64.99 C44.57 52.37, 55.54 39.76, 65.1 28.76 M33.61 64.99 C40.35 57.23, 47.1 49.47, 65.1 28.76 M38.59 65.35 C47.59 55, 56.58 44.65, 64.84 35.16 M38.59 65.35 C43.99 59.14, 49.4 52.92, 64.84 35.16 M44.24 64.95 C52.21 55.78, 60.18 46.61, 64.57 41.56 M44.24 64.95 C51.41 56.71, 58.58 48.46, 64.57 41.56 M49.22 65.31 C52.47 61.58, 55.71 57.85, 64.97 47.2 M49.22 65.31 C54.13 59.68, 59.03 54.04, 64.97 47.2 M54.87 64.92 C58.57 60.66, 62.27 56.41, 64.71 53.6 M54.87 64.92 C58.71 60.5, 62.56 56.07, 64.71 53.6 M59.85 65.28 C61.87 62.97, 63.88 60.65, 65.1 59.24 M59.85 65.28 C61.91 62.91, 63.97 60.54, 65.1 59.24" stroke="#e64980" stroke-width="0.5" fill="none"></path><path d="M0 0 C25.21 0, 50.42 0, 64.65 0 M0 0 C17.4 0, 34.8 0, 64.65 0 M64.65 0 C64.65 20.04, 64.65 40.08, 64.65 64.65 M64.65 0 C64.65 13.22, 64.65 26.44, 64.65 64.65 M64.65 64.65 C50.38 64.65, 36.1 64.65, 0 64.65 M64.65 64.65 C40.04 64.65, 15.43 64.65, 0 64.65 M0 64.65 C0 51.56, 0 38.47, 0 0 M0 64.65 C0 48.77, 0 32.9, 0 0" stroke="#000000" stroke-width="1" fill="none"></path></g><g stroke-linecap="round"><g transform="translate(252.68736258194713 105.40056212336799) rotate(0 7.5846605267433915 0)"><path d="M0 0 C4.48 0, 8.96 0, 15.17 0" stroke="#ffffff" stroke-width="2.5" fill="none" stroke-dasharray="1.5 8"></path></g></g><mask></mask><g stroke-linecap="round"><g transform="translate(251.21546822850632 130.17945664186436) rotate(0 8.568918700631457 0)"><path d="M0 0 C6.51 0, 13.03 0, 17.14 0" stroke="#ffffff" stroke-width="2.5" fill="none" stroke-dasharray="1.5 8"></path></g></g><mask></mask><g stroke-linecap="round"><g transform="translate(234.41491862019393 101.22990155682896) rotate(0 8.477523156769621 16.805789676925656)"><path d="M0 0 C3.7 -1.62, 7.41 -3.23, 16.96 -7.4 M0 0 C6.25 -2.73, 12.5 -5.45, 16.96 -7.4 M16.96 -7.4 C16.93 6.94, 16.91 21.27, 16.87 41.01 M16.96 -7.4 C16.92 10.89, 16.89 29.18, 16.87 41.01 M16.87 41.01 C13.41 39.45, 9.95 37.9, 0.08 33.45 M16.87 41.01 C12.88 39.22, 8.9 37.42, 0.08 33.45 M0.08 33.45 C0.05 21.73, 0.02 10.01, 0 0 M0.08 33.45 C0.06 25.52, 0.04 17.59, 0 0" stroke="#ffffff" stroke-width="2" fill="none"></path></g></g><mask></mask><g stroke-linecap="round"><g transform="translate(268.87596229949395 93.64429009762193) rotate(0 8.488387643005353 24.139529940593775)"><path d="M0 0 C0.07 17.04, 0.14 34.07, 0.2 48.28 M0 0 C0.06 14.24, 0.12 28.48, 0.2 48.28 M0.2 48.28 C5.37 46.02, 10.54 43.76, 16.96 40.95 M0.2 48.28 C4.75 46.29, 9.3 44.3, 16.96 40.95 M16.96 40.95 C16.97 32.19, 16.97 23.43, 16.98 7.51 M16.96 40.95 C16.97 28.74, 16.97 16.53, 16.98 7.51 M16.98 7.51 C12.86 5.69, 8.75 3.87, 0 0 M16.98 7.51 C10.29 4.55, 3.61 1.59, 0 0" stroke="#ffffff" stroke-width="2" fill="none"></path></g></g><mask></mask><g stroke-linecap="round"><g transform="translate(255.5569305130084 123.77992966031843) rotate(0 4.550559742603582 -6.1019679541367395)"><path d="M0 0 C2.82 -3.78, 5.64 -7.56, 9.1 -12.2 M0 0 C3.42 -4.59, 6.84 -9.17, 9.1 -12.2" stroke="#ffffff" stroke-width="2" fill="none"></path></g></g><mask></mask><g stroke-linecap="round"><g transform="translate(263.3654445178154 113.91117574187479) rotate(0 2.4973872120517626 4.2069285343138745)"><path d="M0 0 C1.58 1.38, 3.16 2.76, 5.01 4.37 M0 0 C1.73 1.51, 3.45 3.02, 5.01 4.37 M5.01 4.37 C3.01 5.98, 1.01 7.59, -0.01 8.41 M5.01 4.37 C3.3 5.74, 1.6 7.11, -0.01 8.41" stroke="#ffffff" stroke-width="2" fill="none"></path></g></g><mask></mask><g stroke-linecap="round"><g transform="translate(251.55962791668298 113.36779238912459) rotate(180 2.4973872120517626 4.2069285343138745)"><path d="M0 0 C1.55 1.35, 3.1 2.71, 5.01 4.37 M0 0 C1.02 0.89, 2.05 1.79, 5.01 4.37 M5.01 4.37 C3.9 5.26, 2.79 6.16, -0.01 8.41 M5.01 4.37 C3.1 5.91, 1.19 7.45, -0.01 8.41" stroke="#ffffff" stroke-width="2" fill="none"></path></g></g><mask></mask><g transform="translate(205.1574441086459 151.61451001969567) rotate(0 54 20)"><text x="54" y="14.016" font-family="Virgil, Segoe UI Emoji" font-size="16px" fill="#000000" text-anchor="middle" style="white-space: pre;" direction="ltr" dominant-baseline="alphabetic">Amazon</text><text x="54" y="34.016" font-family="Virgil, Segoe UI Emoji" font-size="16px" fill="#000000" text-anchor="middle" style="white-space: pre;" direction="ltr" dominant-baseline="alphabetic">API Gateway</text></g><g stroke-linecap="round" transform="translate(10 10) rotate(0 51.97149140916554 15.285732767401555)"><path d="M2.03 1.77 C2.03 1.77, 2.03 1.77, 2.03 1.77 M2.03 1.77 C2.03 1.77, 2.03 1.77, 2.03 1.77 M0.46 9.68 C1.97 7.85, 3.42 4.47, 8.33 0.62 M0.46 9.68 C3.18 6.78, 5.45 3.93, 8.33 0.62 M0.86 15.32 C4.71 11.87, 7.12 10.32, 13.32 0.98 M0.86 15.32 C5.56 10.67, 9.56 4.29, 13.32 0.98 M0.59 21.72 C7.23 14.25, 15.46 5.09, 18.96 0.58 M0.59 21.72 C7.43 14.62, 14.67 7.69, 18.96 0.58 M0.99 27.36 C9.21 20.74, 14.83 11.05, 23.95 0.94 M0.99 27.36 C7.63 20.39, 12.68 14.35, 23.95 0.94 M4.01 29.98 C12.89 22.98, 18.95 12.77, 29.59 0.55 M4.01 29.98 C11.12 22.81, 18.77 14.48, 29.59 0.55 M8.99 30.34 C17.7 22.11, 23.28 12.92, 34.58 0.91 M8.99 30.34 C17.79 20.56, 27.34 8.37, 34.58 0.91 M13.98 30.7 C18.38 25.04, 24.79 19.08, 40.22 0.52 M13.98 30.7 C21.23 22.94, 27.29 14.3, 40.22 0.52 M19.62 30.31 C27.26 19.75, 37.71 7.83, 45.21 0.88 M19.62 30.31 C27.29 21.14, 34.69 12.84, 45.21 0.88 M24.61 30.67 C32 21.4, 42.06 8.15, 50.85 0.48 M24.61 30.67 C30.41 24.73, 35.6 17.48, 50.85 0.48 M29.6 31.03 C37.18 19.71, 47.24 9.97, 55.84 0.84 M29.6 31.03 C40.29 18.47, 49.61 7.36, 55.84 0.84 M35.24 30.64 C43.56 22.26, 51.78 9.65, 60.83 1.2 M35.24 30.64 C44.67 19.74, 53.34 10.44, 60.83 1.2 M40.23 31 C50.54 19.44, 59.36 8.84, 66.47 0.81 M40.23 31 C46.12 23.42, 52.64 18.64, 66.47 0.81 M45.87 30.6 C52.18 20.92, 62.49 12.21, 71.46 1.17 M45.87 30.6 C52.74 22.22, 61 12.56, 71.46 1.17 M50.86 30.96 C59.41 20.31, 68.1 14.12, 77.1 0.77 M50.86 30.96 C58.66 22.47, 65.7 12.43, 77.1 0.77 M56.5 30.57 C66.01 20.9, 75.53 11.08, 82.09 1.13 M56.5 30.57 C65.88 19.64, 74.36 8.95, 82.09 1.13 M61.49 30.93 C66.82 24.32, 70.52 18.32, 87.73 0.74 M61.49 30.93 C71.3 19.12, 81.61 7.09, 87.73 0.74 M67.13 30.53 C72.82 24.43, 76.97 16.27, 92.72 1.1 M67.13 30.53 C73.4 22.96, 79.4 16.48, 92.72 1.1 M72.12 30.89 C80.11 24.48, 87.27 13.97, 98.36 0.7 M72.12 30.89 C82.17 19.53, 93.19 7.87, 98.36 0.7 M77.11 31.25 C84.66 21.35, 92.87 11.5, 102.04 2.57 M77.11 31.25 C84.26 22.85, 92.72 14.05, 102.04 2.57 M82.75 30.86 C89.69 23.73, 96.77 13.76, 103.74 6.71 M82.75 30.86 C89.52 23.51, 94.47 16.57, 103.74 6.71 M87.74 31.22 C90.52 27.7, 95.3 20.63, 104.14 12.35 M87.74 31.22 C92.8 24.59, 97.93 18.32, 104.14 12.35 M93.38 30.82 C96.96 28.85, 98.81 24.75, 103.88 18.75 M93.38 30.82 C97.09 26.87, 100.3 22.43, 103.88 18.75 M99.02 30.43 C99.89 28.64, 102.14 27.17, 104.27 24.39 M99.02 30.43 C100 28.78, 101.4 27.4, 104.27 24.39" stroke="#a5d8ff" stroke-width="0.5" fill="none"></path><path d="M7.64 0 C35.64 -0.72, 63.3 -0.69, 96.3 0 M7.64 0 C31.01 1.62, 52.12 0.31, 96.3 0 M96.3 0 C100.53 -1.73, 105.21 2.82, 103.94 7.64 M96.3 0 C101.07 -0.41, 104.72 1.76, 103.94 7.64 M103.94 7.64 C103.3 12.02, 103.36 14.82, 103.94 22.93 M103.94 7.64 C103.74 10.6, 104.48 15.07, 103.94 22.93 M103.94 22.93 C105.43 29.73, 99.72 29.65, 96.3 30.57 M103.94 22.93 C103.49 26.72, 100.04 32, 96.3 30.57 M96.3 30.57 C61.83 29.41, 31.91 31.45, 7.64 30.57 M96.3 30.57 C75.83 30.78, 56.18 30.6, 7.64 30.57 M7.64 30.57 C1.14 29.89, -1.47 28.79, 0 22.93 M7.64 30.57 C0.32 32.28, 2 28.18, 0 22.93 M0 22.93 C-0.6 18.98, 0.51 15.47, 0 7.64 M0 22.93 C0.32 17.58, 0.04 11.59, 0 7.64 M0 7.64 C1.25 4.32, 4 1.52, 7.64 0 M0 7.64 C-0.77 2.91, 2.93 -1.78, 7.64 0" stroke="#1e1e1e" stroke-width="1" fill="none"></path></g><g transform="translate(16.843531204087412 15.285732767401669) rotate(0 45.127960205078125 10)"><text x="45.127960205078125" y="14.016" font-family="Virgil, Segoe UI Emoji" font-size="16px" fill="#1e1e1e" text-anchor="middle" style="white-space: pre;" direction="ltr" dominant-baseline="alphabetic">Applications</text></g><g stroke-linecap="round" transform="translate(12.292859915110967 56.621484940574646) rotate(0 48.150058217314836 35)"><path d="M17.5 0 C35.12 1.19, 55.78 0.88, 78.8 0 M17.5 0 C36.27 -1.14, 54.36 -0.35, 78.8 0 M78.8 0 C91.49 -0.45, 94.6 7.18, 96.3 17.5 M78.8 0 C89.4 2.07, 96.06 6.36, 96.3 17.5 M96.3 17.5 C94.41 29.76, 96.53 43.53, 96.3 52.5 M96.3 17.5 C97.47 31.16, 97.03 46.42, 96.3 52.5 M96.3 52.5 C95.29 65.15, 89.51 70.7, 78.8 70 M96.3 52.5 C95.4 66.35, 89.53 70.5, 78.8 70 M78.8 70 C57.7 71.49, 41.06 69.95, 17.5 70 M78.8 70 C59.16 69.81, 42.38 70.24, 17.5 70 M17.5 70 C7.57 69.81, 1.04 64.33, 0 52.5 M17.5 70 C7.48 70.38, -0.48 63.8, 0 52.5 M0 52.5 C-1.29 41.39, -1.2 25.87, 0 17.5 M0 52.5 C-0.59 45.52, -0.09 38.43, 0 17.5 M0 17.5 C-0.82 7.46, 5.24 1.41, 17.5 0 M0 17.5 C-0.07 5.76, 3.86 1.47, 17.5 0" stroke="#1e1e1e" stroke-width="1" fill="none"></path></g><g transform="translate(18.80294163096096 61.621484940574646) rotate(0 41.639976501464844 30)"><text x="41.639976501464844" y="14.016" font-family="Virgil, Segoe UI Emoji" font-size="16px" fill="#1e1e1e" text-anchor="middle" style="white-space: pre;" direction="ltr" dominant-baseline="alphabetic">Web App </text><text x="41.639976501464844" y="34.016" font-family="Virgil, Segoe UI Emoji" font-size="16px" fill="#1e1e1e" text-anchor="middle" style="white-space: pre;" direction="ltr" dominant-baseline="alphabetic">(eg. react,</text><text x="41.639976501464844" y="54.016" font-family="Virgil, Segoe UI Emoji" font-size="16px" fill="#1e1e1e" text-anchor="middle" style="white-space: pre;" direction="ltr" dominant-baseline="alphabetic">angular)</text></g><g stroke-linecap="round" transform="translate(13.057146553481289 136.87158196943278) rotate(0 47.00362825975981 25.603602385397608)"><path d="M12.8 0 C30.71 -0.09, 47.63 -0.4, 81.21 0 M12.8 0 C35.23 0.66, 58.04 -0.06, 81.21 0 M81.21 0 C91.26 1.59, 92.85 3.45, 94.01 12.8 M81.21 0 C89.28 -0.59, 93.94 4.36, 94.01 12.8 M94.01 12.8 C94.58 22.02, 93.05 31.19, 94.01 38.41 M94.01 12.8 C93.56 22.72, 94.37 31.03, 94.01 38.41 M94.01 38.41 C95.49 46.21, 90.24 50.77, 81.21 51.21 M94.01 38.41 C95.79 45.86, 89.4 49.43, 81.21 51.21 M81.21 51.21 C63.55 50.55, 43.77 51.45, 12.8 51.21 M81.21 51.21 C57.4 51.38, 34.98 51.73, 12.8 51.21 M12.8 51.21 C4.08 52.75, -0.08 47.74, 0 38.41 M12.8 51.21 C2.4 49.75, -1.93 47.98, 0 38.41 M0 38.41 C0.64 26.37, 1.13 18.52, 0 12.8 M0 38.41 C-1.06 32.61, -1.05 27.18, 0 12.8 M0 12.8 C-0.06 4.69, 2.94 0.98, 12.8 0 M0 12.8 C0.98 4.92, 5.28 1.65, 12.8 0" stroke="#1e1e1e" stroke-width="1" fill="none"></path></g><g transform="translate(20.068808565682957 152.4751843548304) rotate(0 39.991966247558594 10)"><text x="39.991966247558594" y="14.016" font-family="Virgil, Segoe UI Emoji" font-size="16px" fill="#1e1e1e" text-anchor="middle" style="white-space: pre;" direction="ltr" dominant-baseline="alphabetic">Mobile App</text></g><g stroke-linecap="round" transform="translate(10.764286638371232 198.014513039039) rotate(0 47.767914898129675 35)"><path d="M17.5 0 C37.64 1.73, 58.77 -0.04, 78.04 0 M17.5 0 C33 -1.1, 46.9 0.43, 78.04 0 M78.04 0 C89.96 -1.57, 96.15 5.43, 95.54 17.5 M78.04 0 C91.6 0.53, 94.2 3.66, 95.54 17.5 M95.54 17.5 C94.46 29.13, 93.97 37.25, 95.54 52.5 M95.54 17.5 C95.4 26.79, 94.69 34.74, 95.54 52.5 M95.54 52.5 C95.72 64.54, 90.74 69.21, 78.04 70 M95.54 52.5 C97.14 62.55, 88.01 69.19, 78.04 70 M78.04 70 C61.73 70.26, 45.32 71.65, 17.5 70 M78.04 70 C58.43 69.37, 37.97 69.17, 17.5 70 M17.5 70 C6.18 70.98, -1.58 64.22, 0 52.5 M17.5 70 C5.82 71.32, 2.28 64.09, 0 52.5 M0 52.5 C1.11 45.14, -0.74 37.34, 0 17.5 M0 52.5 C-0.3 38.46, -0.27 25.1, 0 17.5 M0 17.5 C1.25 7.81, 5.9 0.29, 17.5 0 M0 17.5 C1.73 5.63, 8.08 0.37, 17.5 0" stroke="#1e1e1e" stroke-width="1" fill="none"></path></g><g transform="translate(21.132230528200125 203.014513039039) rotate(0 37.39997100830078 30)"><text x="37.39997100830078" y="14.016" font-family="Virgil, Segoe UI Emoji" font-size="16px" fill="#1e1e1e" text-anchor="middle" style="white-space: pre;" direction="ltr" dominant-baseline="alphabetic">Other </text><text x="37.39997100830078" y="34.016" font-family="Virgil, Segoe UI Emoji" font-size="16px" fill="#1e1e1e" text-anchor="middle" style="white-space: pre;" direction="ltr" dominant-baseline="alphabetic">source </text><text x="37.39997100830078" y="54.016" font-family="Virgil, Segoe UI Emoji" font-size="16px" fill="#1e1e1e" text-anchor="middle" style="white-space: pre;" direction="ltr" dominant-baseline="alphabetic">(postman)</text></g><g stroke-linecap="round"><g transform="translate(124.64299575551286 123.1144224787713) rotate(0 40.50719183361389 1.1368683772161603e-13)"><path d="M0.27 0.6 C13.83 0.34, 67.49 -0.32, 81.07 -0.57 M-1.04 -0.14 C12.38 -0.32, 66.41 0.66, 80.16 0.67" stroke="#1e1e1e" stroke-width="1" fill="none"></path></g><g transform="translate(124.64299575551286 123.1144224787713) rotate(0 40.50719183361389 1.1368683772161603e-13)"><path d="M56.58 8.98 C64.09 6.71, 68.73 5.58, 80.16 0.67 M56.58 8.98 C60.87 6.83, 68.05 6.22, 80.16 0.67" stroke="#1e1e1e" stroke-width="1" fill="none"></path></g><g transform="translate(124.64299575551286 123.1144224787713) rotate(0 40.50719183361389 1.1368683772161603e-13)"><path d="M56.75 -8.12 C64.35 -5.62, 68.94 -1.97, 80.16 0.67 M56.75 -8.12 C61.07 -6.43, 68.22 -3.2, 80.16 0.67" stroke="#1e1e1e" stroke-width="1" fill="none"></path></g></g><mask></mask><g stroke-linecap="round" transform="translate(201.07165959252052 14.585719830220341) rotate(0 63.05364766553157 15)"><path d="M2 1.74 C2 1.74, 2 1.74, 2 1.74 M2 1.74 C2 1.74, 2 1.74, 2 1.74 M1.08 8.89 C2.51 6.42, 5.24 3.38, 8.3 0.59 M1.08 8.89 C3.39 5.57, 6.98 2.51, 8.3 0.59 M1.47 14.53 C6.62 9.01, 8.05 7.61, 13.28 0.95 M1.47 14.53 C3.73 11.68, 6.66 8.78, 13.28 0.95 M1.87 20.17 C6.36 14.11, 12.76 7.19, 18.93 0.55 M1.87 20.17 C9.55 13.04, 15.78 4.77, 18.93 0.55 M1.61 26.57 C9.3 17.52, 14.5 9.95, 23.91 0.91 M1.61 26.57 C10.37 16.92, 19.15 7.36, 23.91 0.91 M3.97 29.95 C8.92 22.55, 15.75 17.58, 29.56 0.52 M3.97 29.95 C12.13 20.67, 20.85 11.62, 29.56 0.52 M9.61 29.56 C16.68 20.82, 28.43 10.01, 34.54 0.88 M9.61 29.56 C14.7 23.99, 19.71 18.79, 34.54 0.88 M14.6 29.92 C25.49 17.9, 34.05 10.12, 40.19 0.48 M14.6 29.92 C24.43 18.21, 34.39 7.07, 40.19 0.48 M20.24 29.52 C24.9 21.34, 34.01 13.58, 45.17 0.84 M20.24 29.52 C26.91 23.54, 31.88 14.98, 45.17 0.84 M25.23 29.88 C33.65 21.3, 41.89 13.43, 50.82 0.45 M25.23 29.88 C34.94 20.01, 44.7 8.42, 50.82 0.45 M30.87 29.49 C35.92 21.73, 42.43 15.97, 55.8 0.81 M30.87 29.49 C40.11 19.93, 47.66 10.49, 55.8 0.81 M35.86 29.85 C44.94 21.01, 56.07 7.96, 60.79 1.17 M35.86 29.85 C43.51 21.36, 49.74 13.61, 60.79 1.17 M41.5 29.45 C46.68 22.3, 51.66 15.39, 66.43 0.77 M41.5 29.45 C49.57 20.66, 56.26 12.18, 66.43 0.77 M46.49 29.81 C56.72 19.88, 65.97 7.9, 71.42 1.13 M46.49 29.81 C54.42 21.48, 60.95 12.57, 71.42 1.13 M52.13 29.42 C61.99 16.5, 72.58 5.25, 77.06 0.74 M52.13 29.42 C58.12 21.84, 64 14.9, 77.06 0.74 M57.12 29.78 C64.78 20.65, 74.57 7.46, 82.05 1.1 M57.12 29.78 C65.66 20.22, 74.54 9.8, 82.05 1.1 M62.11 30.14 C68.84 21.05, 77.05 13.87, 87.69 0.7 M62.11 30.14 C68.63 22.63, 75.51 14.36, 87.69 0.7 M67.75 29.74 C75.37 21.41, 79.88 16.04, 92.68 1.06 M67.75 29.74 C71.55 23.28, 77.64 17.74, 92.68 1.06 M72.74 30.1 C78.95 21.52, 89.07 11.92, 98.32 0.67 M72.74 30.1 C79.3 20.62, 87.8 12.13, 98.32 0.67 M78.38 29.71 C86.66 19.74, 96.58 8.31, 103.31 1.03 M78.38 29.71 C86.57 18.99, 96.32 9.89, 103.31 1.03 M83.37 30.07 C91.23 20.85, 103.77 9.22, 108.3 1.39 M83.37 30.07 C90.9 21.83, 98.79 11.89, 108.3 1.39 M89.01 29.67 C96.75 23.5, 100.61 14.51, 113.94 1 M89.01 29.67 C97.68 19.8, 105.5 11.1, 113.94 1 M94 30.03 C97.82 26.34, 105.05 16.87, 118.93 1.36 M94 30.03 C102.15 20.86, 109.4 10.51, 118.93 1.36 M99.64 29.64 C108.78 17.86, 119.51 8.75, 123.91 1.72 M99.64 29.64 C103.99 23.62, 109.93 18.1, 123.91 1.72 M104.63 30 C112.38 23.31, 118.08 13.75, 126.28 5.1 M104.63 30 C112.49 20.94, 121.52 11.52, 126.28 5.1 M109.61 30.36 C115.78 21.39, 122.01 14.15, 126.67 10.74 M109.61 30.36 C114.65 25.94, 117.21 19.68, 126.67 10.74 M115.26 29.97 C118.67 27.37, 121.84 21.25, 126.41 17.14 M115.26 29.97 C119.16 25.72, 122.85 21.33, 126.41 17.14 M119.59 31.08 C122.12 27.59, 124.76 25.35, 126.15 23.53 M119.59 31.08 C121.35 28.35, 123.6 25.96, 126.15 23.53" stroke="#a5d8ff" stroke-width="0.5" fill="none"></path><path d="M7.5 0 C39.14 -0.93, 73 1.38, 118.61 0 M7.5 0 C35.61 -1.08, 65.21 -0.84, 118.61 0 M118.61 0 C121.95 -0.98, 125.59 4.25, 126.11 7.5 M118.61 0 C125.68 -0.7, 128.34 3.09, 126.11 7.5 M126.11 7.5 C125.95 10.55, 126.61 15.64, 126.11 22.5 M126.11 7.5 C126.17 11.95, 126.84 17.52, 126.11 22.5 M126.11 22.5 C127.68 29.19, 122.58 31.83, 118.61 30 M126.11 22.5 C124.26 27.85, 123.11 29.52, 118.61 30 M118.61 30 C93.07 32.07, 72.18 30.59, 7.5 30 M118.61 30 C96.13 29.65, 73.72 28.71, 7.5 30 M7.5 30 C4.19 29.08, -0.27 29.12, 0 22.5 M7.5 30 C0.68 32.08, -0.29 27.29, 0 22.5 M0 22.5 C-0.96 16.74, 1.37 12.86, 0 7.5 M0 22.5 C-0.22 16.49, 0.05 10.87, 0 7.5 M0 7.5 C-1.47 3.17, 0.93 0.99, 7.5 0 M0 7.5 C0.52 0.31, 0.24 -0.39, 7.5 0" stroke="#1e1e1e" stroke-width="1" fill="none"></path></g><g transform="translate(223.11733454076693 19.58571983022034) rotate(0 41.007972717285156 10)"><text x="41.007972717285156" y="14.016" font-family="Virgil, Segoe UI Emoji" font-size="16px" fill="#1e1e1e" text-anchor="middle" style="white-space: pre;" direction="ltr" dominant-baseline="alphabetic">REST API</text></g><g stroke-linecap="round" transform="translate(170.50019405771673 191.13593329370838) rotate(0 89.80368000848375 80.41428016977943)"><path d="M32 0 C64.94 0.13, 93.98 2.8, 147.61 0 M147.61 0 C170.23 0.57, 179.91 10.44, 179.61 32 M179.61 32 C178.61 53.44, 178.44 76.92, 179.61 128.83 M179.61 128.83 C181.31 149.56, 169.78 161.11, 147.61 160.83 M147.61 160.83 C105.35 158.5, 63.43 158.3, 32 160.83 M32 160.83 C11.78 160.5, 0.54 149.35, 0 128.83 M0 128.83 C0.36 106.91, 1.28 83.35, 0 32 M0 32 C2 9.25, 12.18 1.64, 32 0" stroke="#1e1e1e" stroke-width="1.5" fill="none" stroke-dasharray="8 9"></path></g><g transform="translate(176.02392869266532 221.5502134634878) rotate(0 84.27994537353516 50)"><text x="84.27994537353516" y="14.016" font-family="Virgil, Segoe UI Emoji" font-size="16px" fill="#1e1e1e" text-anchor="middle" style="white-space: pre;" direction="ltr" dominant-baseline="alphabetic">Define API Endpoint </text><text x="84.27994537353516" y="34.016" font-family="Virgil, Segoe UI Emoji" font-size="16px" fill="#1e1e1e" text-anchor="middle" style="white-space: pre;" direction="ltr" dominant-baseline="alphabetic">&amp; Http methods (eg. </text><text x="84.27994537353516" y="54.016" font-family="Virgil, Segoe UI Emoji" font-size="16px" fill="#1e1e1e" text-anchor="middle" style="white-space: pre;" direction="ltr" dominant-baseline="alphabetic">Post /cars)</text><text x="84.27994537353516" y="74.016" font-family="Virgil, Segoe UI Emoji" font-size="16px" fill="#1e1e1e" text-anchor="middle" style="white-space: pre;" direction="ltr" dominant-baseline="alphabetic"></text><text x="84.27994537353516" y="94.016" font-family="Virgil, Segoe UI Emoji" font-size="16px" fill="#1e1e1e" text-anchor="middle" style="white-space: pre;" direction="ltr" dominant-baseline="alphabetic">Authorize Access</text></g><g stroke-linecap="round"><g transform="translate(312.6575087945521 121.58584920203134) rotate(0 43.94648170627943 0.3821433191849337)"><path d="M-0.7 0.25 C14.01 0.29, 72.88 -0.47, 87.46 -0.39 M1.14 -0.67 C15.71 -0.47, 71.63 0.09, 86.28 0.54" stroke="#1e1e1e" stroke-width="1" fill="none"></path></g><g transform="translate(312.6575087945521 121.58584920203134) rotate(0 43.94648170627943 0.3821433191849337)"><path d="M62.63 8.64 C68.67 6.14, 71.92 3.03, 86.28 0.54 M62.63 8.64 C70.17 7.08, 76.29 3.97, 86.28 0.54" stroke="#1e1e1e" stroke-width="1" fill="none"></path></g><g transform="translate(312.6575087945521 121.58584920203134) rotate(0 43.94648170627943 0.3821433191849337)"><path d="M62.96 -8.46 C68.84 -6.92, 72.01 -5.99, 86.28 0.54 M62.96 -8.46 C70.33 -4.92, 76.35 -2.92, 86.28 0.54" stroke="#1e1e1e" stroke-width="1" fill="none"></path></g></g><mask></mask><g stroke-linecap="round" transform="translate(403.22547544140525 14.871452597621783) rotate(0 63.05364766553157 15)"><path d="M2 1.74 C2 1.74, 2 1.74, 2 1.74 M2 1.74 C2 1.74, 2 1.74, 2 1.74 M0.42 9.64 C3.62 6.77, 4.89 3.4, 8.3 0.59 M0.42 9.64 C3.26 6.58, 4.82 4.17, 8.3 0.59 M0.82 15.29 C2.67 10.8, 6.37 7.47, 13.28 0.95 M0.82 15.29 C5.68 10.8, 9.49 5.12, 13.28 0.95 M1.21 20.93 C8.43 15.67, 11.59 6.4, 18.93 0.55 M1.21 20.93 C6.46 14.69, 11.52 8.46, 18.93 0.55 M1.61 26.57 C9.94 15.57, 19.33 6.95, 23.91 0.91 M1.61 26.57 C8.37 18.84, 13.56 12.28, 23.91 0.91 M3.97 29.95 C11.36 22.99, 21.05 12.31, 29.56 0.52 M3.97 29.95 C10.15 23.48, 16.45 17.37, 29.56 0.52 M9.61 29.56 C16.36 21.21, 21.53 13.2, 34.54 0.88 M9.61 29.56 C15.03 23.14, 21.55 16.61, 34.54 0.88 M14.6 29.92 C23.17 19.93, 33.01 8.77, 40.19 0.48 M14.6 29.92 C21.04 22.3, 28.09 14.38, 40.19 0.48 M20.24 29.52 C28.39 20.49, 33.52 10.51, 45.17 0.84 M20.24 29.52 C25.02 24.35, 30.8 18.82, 45.17 0.84 M25.23 29.88 C30.57 24.21, 38.9 15.89, 50.82 0.45 M25.23 29.88 C31.9 20.45, 39.56 13.31, 50.82 0.45 M30.87 29.49 C41.86 18.72, 51.04 7.08, 55.8 0.81 M30.87 29.49 C36.11 23.44, 40.5 17.09, 55.8 0.81 M35.86 29.85 C46.6 17.32, 54.43 5.98, 60.79 1.17 M35.86 29.85 C42.78 20.14, 49.98 11.82, 60.79 1.17 M41.5 29.45 C50.25 23.3, 54.93 14.44, 66.43 0.77 M41.5 29.45 C47.1 22.15, 53.41 13.79, 66.43 0.77 M46.49 29.81 C54.45 21.76, 61.87 10.76, 71.42 1.13 M46.49 29.81 C52.98 24.49, 57.85 16.72, 71.42 1.13 M52.13 29.42 C57.86 23.15, 65.56 15.36, 77.06 0.74 M52.13 29.42 C59.85 21.26, 66.18 13.75, 77.06 0.74 M57.12 29.78 C65.23 19.1, 76.47 9.24, 82.05 1.1 M57.12 29.78 C66.86 19.83, 74.23 9.21, 82.05 1.1 M62.11 30.14 C66.92 21.58, 72.73 16.65, 87.69 0.7 M62.11 30.14 C68.83 21.57, 75.55 14.16, 87.69 0.7 M67.75 29.74 C74.71 21.34, 83.38 15.64, 92.68 1.06 M67.75 29.74 C73.9 22.58, 80.07 14.42, 92.68 1.06 M72.74 30.1 C78.95 24.36, 84.92 15.59, 98.32 0.67 M72.74 30.1 C79.79 20.95, 88.89 13.57, 98.32 0.67 M78.38 29.71 C87.18 18.28, 96.82 7.46, 103.31 1.03 M78.38 29.71 C85.77 21.71, 94.53 11.08, 103.31 1.03 M83.37 30.07 C90.38 20.83, 102 8.86, 108.3 1.39 M83.37 30.07 C91.69 20.94, 101.34 10.19, 108.3 1.39 M89.01 29.67 C95.02 25.08, 99.19 18.29, 113.94 1 M89.01 29.67 C97.44 19.77, 107.72 7.85, 113.94 1 M94 30.03 C100.75 20.32, 109.23 15.58, 118.93 1.36 M94 30.03 C101.45 22.82, 107.29 14.83, 118.93 1.36 M99.64 29.64 C107.59 21.18, 111.99 12.38, 123.26 2.47 M99.64 29.64 C105.27 23.15, 110.85 17.55, 123.26 2.47 M104.63 30 C111.95 24.09, 119.63 15.82, 125.62 5.85 M104.63 30 C111.87 21.18, 120.31 13.08, 125.62 5.85 M109.61 30.36 C113.47 26.95, 118.77 19.16, 125.36 12.25 M109.61 30.36 C113.91 25.52, 117.04 21.05, 125.36 12.25 M115.26 29.97 C119.59 25.28, 121.5 21.77, 125.75 17.89 M115.26 29.97 C118.31 27.11, 121.96 23.63, 125.75 17.89 M120.9 29.57 C122.51 27.41, 124.65 25.65, 125.49 24.29 M120.9 29.57 C121.99 27.82, 123.14 27.03, 125.49 24.29" stroke="#a5d8ff" stroke-width="0.5" fill="none"></path><path d="M7.5 0 C37.75 -0.89, 69.92 -0.07, 118.61 0 M7.5 0 C50.04 0.35, 92.17 0.9, 118.61 0 M118.61 0 C122.8 -0.49, 125.18 1.24, 126.11 7.5 M118.61 0 C124.64 -0.92, 126.5 3.99, 126.11 7.5 M126.11 7.5 C126.4 12.45, 127.33 16.81, 126.11 22.5 M126.11 7.5 C125.52 11.11, 125.51 15.36, 126.11 22.5 M126.11 22.5 C127.48 27.95, 124.04 31.64, 118.61 30 M126.11 22.5 C125.02 28.67, 123.5 29.94, 118.61 30 M118.61 30 C87.66 30.84, 59.07 30.61, 7.5 30 M118.61 30 C85.38 30.02, 50.3 29.01, 7.5 30 M7.5 30 C2.25 29.65, 1.22 26.56, 0 22.5 M7.5 30 C1.28 31.36, -0.25 25.39, 0 22.5 M0 22.5 C1.45 18.75, 0.57 17.69, 0 7.5 M0 22.5 C-0.12 17.48, 0.06 11.18, 0 7.5 M0 7.5 C-0.48 1.79, 2.4 -1.88, 7.5 0 M0 7.5 C-0.73 4.46, 2.72 0.86, 7.5 0" stroke="#1e1e1e" stroke-width="1" fill="none"></path></g><g transform="translate(442.5751359853548 19.871452597621783) rotate(0 23.70398712158203 10)"><text x="23.70398712158203" y="14.016" font-family="Virgil, Segoe UI Emoji" font-size="16px" fill="#1e1e1e" text-anchor="middle" style="white-space: pre;" direction="ltr" dominant-baseline="alphabetic">Action</text></g><g stroke-linecap="round" transform="translate(399.0218989303712 72.67150434634618) rotate(0 72.98937396434258 45)"><path d="M22.5 0 C60.95 -0.83, 100.54 0.59, 123.48 0 M22.5 0 C46.62 -0.37, 68.94 1.27, 123.48 0 M123.48 0 C137.52 0.7, 145.99 8.98, 145.98 22.5 M123.48 0 C136.43 -0.96, 144.76 9.77, 145.98 22.5 M145.98 22.5 C148.03 39.41, 146.09 57.2, 145.98 67.5 M145.98 22.5 C145.18 35.06, 146.92 49.15, 145.98 67.5 M145.98 67.5 C144.61 83.54, 139.19 89.43, 123.48 90 M145.98 67.5 C144.07 83.41, 139.83 88.75, 123.48 90 M123.48 90 C88.5 91.23, 55.98 89.41, 22.5 90 M123.48 90 C101.38 90.32, 78.32 90.1, 22.5 90 M22.5 90 C8.84 89.68, -0.85 80.97, 0 67.5 M22.5 90 C8.69 90.84, -2.04 82.12, 0 67.5 M0 67.5 C-1.66 51.89, 1.73 32.93, 0 22.5 M0 67.5 C0.17 55.05, -0.29 42.18, 0 22.5 M0 22.5 C1.66 8.29, 8.97 -0.66, 22.5 0 M0 22.5 C-0.96 5.5, 6.05 2.23, 22.5 0" stroke="#1e1e1e" stroke-width="1" fill="none"></path></g><g transform="translate(407.3793072575072 87.67150434634618) rotate(0 64.63196563720703 30)"><text x="64.63196563720703" y="14.016" font-family="Virgil, Segoe UI Emoji" font-size="16px" fill="#1e1e1e" text-anchor="middle" style="white-space: pre;" direction="ltr" dominant-baseline="alphabetic">Directly access </text><text x="64.63196563720703" y="34.016" font-family="Virgil, Segoe UI Emoji" font-size="16px" fill="#1e1e1e" text-anchor="middle" style="white-space: pre;" direction="ltr" dominant-baseline="alphabetic">some AWS </text><text x="64.63196563720703" y="54.016" font-family="Virgil, Segoe UI Emoji" font-size="16px" fill="#1e1e1e" text-anchor="middle" style="white-space: pre;" direction="ltr" dominant-baseline="alphabetic">Services</text></g><g stroke-linecap="round" transform="translate(400.55047220711094 186.5502134634878) rotate(0 69.9322274108622 45)"><path d="M22.5 0 C50.15 -1.59, 73.76 1.9, 117.36 0 M22.5 0 C40.57 -0.14, 60.98 -1.53, 117.36 0 M117.36 0 C132.21 -0.99, 140.11 5.64, 139.86 22.5 M117.36 0 C130.48 2.03, 139.57 6.97, 139.86 22.5 M139.86 22.5 C141.4 35.38, 137.76 47.64, 139.86 67.5 M139.86 22.5 C138.58 33.01, 139.17 45.95, 139.86 67.5 M139.86 67.5 C139.08 84.09, 130.94 90.1, 117.36 90 M139.86 67.5 C140.11 81.88, 134.59 91.21, 117.36 90 M117.36 90 C92.1 90.52, 66.69 88.95, 22.5 90 M117.36 90 C93.22 89.9, 70.35 89.94, 22.5 90 M22.5 90 C8.84 89.46, 0.18 80.9, 0 67.5 M22.5 90 C6.03 90.45, 0.23 82.87, 0 67.5 M0 67.5 C-0.46 56.56, 1.5 46.61, 0 22.5 M0 67.5 C-1.19 50.03, -0.4 35.22, 0 22.5 M0 22.5 C-1.85 6.89, 9.06 1.53, 22.5 0 M0 22.5 C2.26 8.26, 6.64 1.14, 22.5 0" stroke="#1e1e1e" stroke-width="1" fill="none"></path></g><g transform="translate(410.3947326990283 191.5502134634878) rotate(0 60.08796691894531 40)"><text x="60.08796691894531" y="14.016" font-family="Virgil, Segoe UI Emoji" font-size="16px" fill="#1e1e1e" text-anchor="middle" style="white-space: pre;" direction="ltr" dominant-baseline="alphabetic">Run Lambda </text><text x="60.08796691894531" y="34.016" font-family="Virgil, Segoe UI Emoji" font-size="16px" fill="#1e1e1e" text-anchor="middle" style="white-space: pre;" direction="ltr" dominant-baseline="alphabetic">Code (and </text><text x="60.08796691894531" y="54.016" font-family="Virgil, Segoe UI Emoji" font-size="16px" fill="#1e1e1e" text-anchor="middle" style="white-space: pre;" direction="ltr" dominant-baseline="alphabetic">forward </text><text x="60.08796691894531" y="74.016" font-family="Virgil, Segoe UI Emoji" font-size="16px" fill="#1e1e1e" text-anchor="middle" style="white-space: pre;" direction="ltr" dominant-baseline="alphabetic">Request Data)</text></g></svg>