<svg version="1.1" xmlns="http://www.w3.org/2000/svg" xmlns:xlink="http://www.w3.org/1999/xlink" width="50px" height="50px" viewBox="0,0,256,256"><g fill="#23b0ff" fill-rule="nonzero" stroke="none" stroke-width="1" stroke-linecap="butt" stroke-linejoin="miter" stroke-miterlimit="10" stroke-dasharray="" stroke-dashoffset="0" font-family="none" font-weight="none" font-size="none" text-anchor="none" style="mix-blend-mode: normal"><g transform="scale(5.12,5.12)"><path d="M9,4c-2.74952,0 -5,2.25048 -5,5v32c0,2.74952 2.25048,5 5,5h32c2.74952,0 5,-2.25048 5,-5v-32c0,-2.74952 -2.25048,-5 -5,-5zM9,6h32c1.66848,0 3,1.33152 3,3v32c0,1.66848 -1.33152,3 -3,3h-32c-1.66848,0 -3,-1.33152 -3,-3v-32c0,-1.66848 1.33152,-3 3,-3zM14.49023,11c-1.23547,0 -2.44956,0.09143 -3.63672,0.26758c-0.35647,0.04895 -0.65916,0.28562 -0.79266,0.61975c-0.1335,0.33413 -0.07722,0.71422 0.14738,0.99533c0.2246,0.28111 0.58289,0.4199 0.93824,0.36344c1.09085,-0.16185 2.20722,-0.24609 3.34375,-0.24609c12.44359,0 22.50977,10.06526 22.50977,22.50781c0,1.13758 -0.08337,2.25347 -0.24609,3.34375c-0.06826,0.36002 0.06584,0.72855 0.34951,0.96051c0.28367,0.23196 0.67149,0.29021 1.01079,0.15182c0.3393,-0.13839 0.57574,-0.45126 0.61626,-0.81546c0.17727,-1.18772 0.26953,-2.4042 0.26953,-3.64063c0,-13.52345 -10.98536,-24.50781 -24.50977,-24.50781zM14.50391,21c-1.30056,0 -2.5632,0.1726 -3.76367,0.49609c-0.53341,0.14346 -0.84952,0.69218 -0.70605,1.22559c0.14346,0.53341 0.69218,0.84952 1.22559,0.70605c1.03353,-0.27851 2.1207,-0.42773 3.24414,-0.42773c6.9104,0 12.49609,5.61459 12.49609,12.57422c0,1.0979 -0.13906,2.16197 -0.40039,3.17578c-0.10311,0.35041 -0.00699,0.72916 0.25074,0.98799c0.25773,0.25883 0.63607,0.35657 0.98692,0.25495c0.35085,-0.10162 0.61838,-0.38643 0.69789,-0.74294c0.30267,-1.17419 0.46484,-2.40769 0.46484,-3.67578c0,-8.03437 -6.49849,-14.57422 -14.49609,-14.57422zM14.5,31c-2.47353,0 -4.5,2.02327 -4.5,4.5c0,2.47096 2.02371,4.5 4.5,4.5c2.47629,0 4.5,-2.02904 4.5,-4.5c0,-2.47673 -2.02647,-4.5 -4.5,-4.5zM14.5,33c1.39847,0 2.5,1.09873 2.5,2.5c0,1.39104 -1.10429,2.5 -2.5,2.5c-1.39571,0 -2.5,-1.10896 -2.5,-2.5c0,-1.40127 1.10153,-2.5 2.5,-2.5z"></path></g></g></svg>